<svg xmlns="http://www.w3.org/2000/svg" xmlns:xlink="http://www.w3.org/1999/xlink" aria-hidden="true" focusable="false" width="1em" height="1em" style="-ms-transform: rotate(360deg); -webkit-transform: rotate(360deg); transform: rotate(360deg);" preserveAspectRatio="xMidYMid meet" viewBox="0 0 20 20"><path d="M10 6c3.9 0 7-.9 7-2s-3.1-2-7-2s-7 .9-7 2s3.1 2 7 2zm0 9c-3.9 0-7-.9-7-2v3c0 1.1 3.1 2 7 2s7-.9 7-2v-3c0 1.1-3.1 2-7 2zm0-4c-3.9 0-7-.9-7-2v3c0 1.1 3.1 2 7 2s7-.9 7-2V9c0 1.1-3.1 2-7 2zm0-4c-3.9 0-7-.9-7-2v3c0 1.1 3.1 2 7 2s7-.9 7-2V5c0 1.1-3.1 2-7 2z" fill="#626262"/></svg>